<svg xmlns="http://www.w3.org/2000/svg" viewBox="0 0 400 200" fill="none" stroke="#2D3142" stroke-width="1.5" stroke-linecap="round" stroke-linejoin="round">
  <!-- Brunnen -->
  <ellipse cx="200" cy="140" rx="40" ry="12" />
  <path d="M170 140 L170 115 Q200 95 230 115 L230 140" />
  <line x1="200" y1="95" x2="200" y2="75" />
  <path d="M190 75 Q200 65 210 75" stroke="#4CAF87" stroke-width="2" />
  <!-- Bank links -->
  <rect x="60" y="135" width="50" height="5" rx="2" />
  <line x1="65" y1="140" x2="65" y2="155" />
  <line x1="105" y1="140" x2="105" y2="155" />
  <!-- Bank rechts -->
  <rect x="290" y="135" width="50" height="5" rx="2" />
  <line x1="295" y1="140" x2="295" y2="155" />
  <line x1="335" y1="140" x2="335" y2="155" />
  <!-- Baum links -->
  <line x1="45" y1="155" x2="45" y2="110" />
  <circle cx="45" cy="95" r="20" fill="none" stroke="#4CAF87" stroke-width="1.5" />
  <!-- Baum rechts -->
  <line x1="355" y1="155" x2="355" y2="110" />
  <circle cx="355" cy="95" r="18" fill="none" stroke="#4CAF87" stroke-width="1.5" />
  <!-- Boden-Linie -->
  <line x1="20" y1="155" x2="380" y2="155" stroke-dasharray="4 4" opacity="0.4" />
</svg>
