<svg xmlns="http://www.w3.org/2000/svg" viewBox="0 0 400 200" fill="none" stroke-linecap="round" stroke-linejoin="round">
  <!-- Hintergrund: Zaun -->
  <path d="M20 155 L380 155" stroke="#2D3142" stroke-width="0.8" opacity="0.15"/>
  <path d="M20 140 L380 140" stroke="#2D3142" stroke-width="0.6" opacity="0.1"/>
  <line x1="40" y1="130" x2="40" y2="160" stroke="#2D3142" stroke-width="0.5" opacity="0.1"/>
  <line x1="70" y1="128" x2="70" y2="160" stroke="#2D3142" stroke-width="0.5" opacity="0.1"/>
  <line x1="330" y1="130" x2="330" y2="160" stroke="#2D3142" stroke-width="0.5" opacity="0.1"/>
  <line x1="360" y1="128" x2="360" y2="160" stroke="#2D3142" stroke-width="0.5" opacity="0.1"/>

  <!-- Busch links hinten -->
  <path d="M30 135 Q40 118 55 125 Q65 115 78 125 Q85 120 88 130 Q92 135 85 140" stroke="#4CAF87" stroke-width="1" opacity="0.2" fill="#4CAF87" fill-opacity="0.03"/>

  <!-- Busch rechts hinten -->
  <path d="M312 132 Q322 118 335 122 Q342 115 355 125 Q362 120 368 132 Q372 138 362 142" stroke="#4CAF87" stroke-width="1" opacity="0.2" fill="#4CAF87" fill-opacity="0.03"/>

  <!-- Person links (Frau, detailliert) -->
  <!-- Kopf -->
  <circle cx="148" cy="62" r="14" stroke="#2D3142" stroke-width="1.8"/>
  <!-- Haare -->
  <path d="M134 58 Q132 48 140 42 Q148 36 158 40 Q164 44 162 55" stroke="#2D3142" stroke-width="1.5"/>
  <path d="M134 58 Q130 62 132 68" stroke="#2D3142" stroke-width="1"/>
  <path d="M162 55 Q165 60 163 68" stroke="#2D3142" stroke-width="1"/>
  <!-- Gesicht -->
  <circle cx="143" cy="60" r="1.2" fill="#2D3142" stroke="none"/>
  <circle cx="153" cy="60" r="1.2" fill="#2D3142" stroke="none"/>
  <path d="M144 67 Q148 70 152 67" stroke="#2D3142" stroke-width="0.8"/>
  <!-- Koerper -->
  <path d="M140 76 L138 105 Q138 112 145 112 L148 112" stroke="#2D3142" stroke-width="1.5"/>
  <path d="M156 76 L158 105 Q158 112 152 112 L148 112" stroke="#2D3142" stroke-width="1.5"/>
  <!-- Schultern + Arme -->
  <path d="M134 80 Q128 82 124 92 Q122 98 126 102" stroke="#2D3142" stroke-width="1.3"/>
  <path d="M162 80 Q168 82 174 90 Q178 96 180 102" stroke="#2D3142" stroke-width="1.3"/>
  <!-- Hand rechts (greift nach Mitte) -->
  <circle cx="180" cy="103" r="3.5" stroke="#2D3142" stroke-width="1"/>
  <!-- Beine -->
  <path d="M142 112 L136 145 Q135 148 138 148" stroke="#2D3142" stroke-width="1.3"/>
  <path d="M154 112 L158 145 Q159 148 156 148" stroke="#2D3142" stroke-width="1.3"/>
  <!-- Kleid-Andeutung -->
  <path d="M138 90 Q148 95 158 90" stroke="#2D3142" stroke-width="0.6" opacity="0.3"/>
  <path d="M136 100 Q148 106 160 100" stroke="#2D3142" stroke-width="0.6" opacity="0.3"/>

  <!-- Person rechts (Mann, detailliert) -->
  <!-- Kopf -->
  <circle cx="252" cy="58" r="14" stroke="#2D3142" stroke-width="1.8"/>
  <!-- Haare (kurz) -->
  <path d="M238 54 Q240 42 252 40 Q264 42 266 54" stroke="#2D3142" stroke-width="1.8"/>
  <!-- Gesicht -->
  <circle cx="247" cy="56" r="1.2" fill="#2D3142" stroke="none"/>
  <circle cx="257" cy="56" r="1.2" fill="#2D3142" stroke="none"/>
  <path d="M248 63 Q252 66 256 63" stroke="#2D3142" stroke-width="0.8"/>
  <!-- Koerper -->
  <path d="M244 72 L242 108 Q242 115 248 115 L252 115" stroke="#2D3142" stroke-width="1.5"/>
  <path d="M260 72 L262 108 Q262 115 256 115 L252 115" stroke="#2D3142" stroke-width="1.5"/>
  <!-- Schultern + Arme -->
  <path d="M270 76 Q276 78 280 88 Q282 95 280 100" stroke="#2D3142" stroke-width="1.3"/>
  <path d="M234 76 Q228 78 224 88 Q220 96 220 102" stroke="#2D3142" stroke-width="1.3"/>
  <!-- Hand links (greift nach Mitte) -->
  <circle cx="220" cy="103" r="3.5" stroke="#2D3142" stroke-width="1"/>
  <!-- Beine -->
  <path d="M246 115 L240 148 Q239 152 242 152" stroke="#2D3142" stroke-width="1.3"/>
  <path d="M258 115 L264 148 Q265 152 262 152" stroke="#2D3142" stroke-width="1.3"/>
  <!-- Hemd-Andeutung -->
  <path d="M242 86 Q252 90 262 86" stroke="#2D3142" stroke-width="0.6" opacity="0.3"/>
  <line x1="252" y1="72" x2="252" y2="95" stroke="#2D3142" stroke-width="0.5" opacity="0.2"/>

  <!-- Verbundene Haende (Herzstueck) -->
  <path d="M180 103 Q195 95 200 98 Q205 95 220 103" stroke="#F59E0B" stroke-width="2.5"/>
  <path d="M188 100 Q194 96 200 98 Q206 96 212 100" stroke="#F59E0B" stroke-width="1" opacity="0.4"/>

  <!-- Herz gross oben -->
  <path d="M188 35 Q188 18 200 18 Q208 18 208 30 Q208 18 216 18 Q228 18 228 35 Q228 52 208 65 Q188 52 188 35Z" stroke="#EF4444" stroke-width="2" fill="#EF4444" fill-opacity="0.06"/>
  <!-- Herz-Detail innen -->
  <path d="M195 32 Q195 25 202 25 Q206 25 206 30" stroke="#EF4444" stroke-width="0.6" opacity="0.3"/>

  <!-- Kleine schwebende Herzen -->
  <path d="M165 30 Q165 24 170 24 Q173 24 173 29 Q173 34 170 38 Q165 34 165 30Z" stroke="#EF4444" stroke-width="0.8" opacity="0.4"/>
  <path d="M235 25 Q235 20 239 20 Q242 20 242 24 Q242 28 239 32 Q235 28 235 25Z" stroke="#EF4444" stroke-width="0.8" opacity="0.35"/>
  <path d="M200 78 Q200 74 203 74 Q205 74 205 77 Q205 80 203 82 Q200 80 200 78Z" stroke="#EF4444" stroke-width="0.6" opacity="0.3"/>

  <!-- Funkeln / Sterne -->
  <path d="M175 48 L177 44 L179 48 L175 46 L179 46Z" stroke="#F59E0B" stroke-width="0.5" opacity="0.4"/>
  <path d="M225 42 L226.5 39 L228 42 L225 40.5 L228 40.5Z" stroke="#F59E0B" stroke-width="0.5" opacity="0.35"/>
  <circle cx="155" cy="45" r="0.8" fill="#F59E0B" fill-opacity="0.3" stroke="none"/>
  <circle cx="248" cy="38" r="0.8" fill="#F59E0B" fill-opacity="0.3" stroke="none"/>

  <!-- Blumen am Boden -->
  <line x1="100" y1="160" x2="100" y2="148" stroke="#4CAF87" stroke-width="0.7"/>
  <circle cx="97" cy="146" r="2.5" stroke="#F59E0B" stroke-width="0.7" fill="#F59E0B" fill-opacity="0.06"/>
  <circle cx="103" cy="144" r="2" stroke="#F59E0B" stroke-width="0.7" fill="#F59E0B" fill-opacity="0.06"/>
  <path d="M98 150 Q100 148 102 150" stroke="#4CAF87" stroke-width="0.5"/>

  <line x1="300" y1="160" x2="300" y2="150" stroke="#4CAF87" stroke-width="0.7"/>
  <circle cx="297" cy="148" r="2" stroke="#8B5CF6" stroke-width="0.7" fill="#8B5CF6" fill-opacity="0.06"/>
  <circle cx="303" cy="146" r="2.5" stroke="#8B5CF6" stroke-width="0.7" fill="#8B5CF6" fill-opacity="0.06"/>

  <!-- Schmetterling -->
  <path d="M285 70 Q280 62 282 58 Q286 62 285 70" stroke="#3B82F6" stroke-width="0.7" opacity="0.4" fill="#3B82F6" fill-opacity="0.04"/>
  <path d="M285 70 Q290 62 288 58 Q284 62 285 70" stroke="#3B82F6" stroke-width="0.7" opacity="0.4" fill="#3B82F6" fill-opacity="0.04"/>
  <line x1="284" y1="70" x2="282" y2="74" stroke="#2D3142" stroke-width="0.3" opacity="0.3"/>

  <!-- Boden -->
  <line x1="10" y1="162" x2="390" y2="162" stroke="#2D3142" stroke-width="1" opacity="0.25"/>
  <path d="M90 162 Q95 160 100 162" stroke="#2D3142" stroke-width="0.4" opacity="0.12"/>
  <path d="M190 162 Q195 160 200 162" stroke="#2D3142" stroke-width="0.4" opacity="0.12"/>
  <path d="M290 162 Q295 160 300 162" stroke="#2D3142" stroke-width="0.4" opacity="0.12"/>
</svg>