<svg xmlns="http://www.w3.org/2000/svg" viewBox="0 0 400 200" fill="none" stroke="#2D3142" stroke-width="1.5" stroke-linecap="round" stroke-linejoin="round">
  <!-- Pinnwand-Rahmen -->
  <rect x="100" y="30" width="200" height="140" rx="6" />
  <!-- Notiz 1 -->
  <rect x="120" y="50" width="60" height="45" rx="2" transform="rotate(-3 150 72)" />
  <line x1="130" y1="62" x2="170" y2="62" opacity="0.5" />
  <line x1="130" y1="72" x2="165" y2="72" opacity="0.5" />
  <circle cx="150" cy="48" r="3" fill="#8B5CF6" stroke="#8B5CF6" />
  <!-- Notiz 2 -->
  <rect x="220" y="45" width="55" height="50" rx="2" transform="rotate(2 247 70)" />
  <line x1="230" y1="60" x2="265" y2="60" opacity="0.5" />
  <line x1="230" y1="70" x2="260" y2="70" opacity="0.5" />
  <circle cx="247" cy="43" r="3" fill="#8B5CF6" stroke="#8B5CF6" />
  <!-- Notiz 3 -->
  <rect x="140" y="110" width="65" height="40" rx="2" transform="rotate(1 172 130)" />
  <line x1="150" y1="122" x2="195" y2="122" opacity="0.5" />
  <line x1="150" y1="132" x2="190" y2="132" opacity="0.5" />
  <circle cx="172" cy="108" r="3" fill="#8B5CF6" stroke="#8B5CF6" />
  <!-- Notiz 4 -->
  <rect x="225" y="112" width="50" height="38" rx="2" transform="rotate(-2 250 131)" />
  <line x1="233" y1="125" x2="268" y2="125" opacity="0.5" />
  <circle cx="250" cy="110" r="3" fill="#8B5CF6" stroke="#8B5CF6" />
</svg>
