<svg xmlns="http://www.w3.org/2000/svg" viewBox="0 0 400 200" fill="none" stroke="#2D3142" stroke-width="1.5" stroke-linecap="round" stroke-linejoin="round">
  <!-- Haus -->
  <rect x="130" y="90" width="140" height="70" rx="2" />
  <!-- Dach -->
  <path d="M120 90 L200 40 L280 90" stroke-width="2" />
  <!-- Tuer -->
  <rect x="180" y="120" width="30" height="40" rx="2" />
  <circle cx="204" cy="142" r="2" fill="#2D3142" />
  <!-- Fenster links -->
  <rect x="145" y="105" width="25" height="20" rx="1" />
  <line x1="157" y1="105" x2="157" y2="125" />
  <line x1="145" y1="115" x2="170" y2="115" />
  <!-- Fenster rechts -->
  <rect x="230" y="105" width="25" height="20" rx="1" />
  <line x1="242" y1="105" x2="242" y2="125" />
  <line x1="230" y1="115" x2="255" y2="115" />
  <!-- Garten -->
  <path d="M90 160 Q110 145 130 160" stroke="#F59E0B" stroke-width="1.5" />
  <path d="M270 160 Q290 148 310 160" stroke="#F59E0B" stroke-width="1.5" />
  <line x1="100" y1="160" x2="100" y2="150" stroke="#4CAF87" />
  <circle cx="100" cy="147" r="4" fill="none" stroke="#F59E0B" stroke-width="1.5" />
  <!-- Boden -->
  <line x1="50" y1="160" x2="350" y2="160" stroke-dasharray="4 4" opacity="0.4" />
</svg>
