<svg width="512" height="512" viewBox="0 0 512 512" fill="none" xmlns="http://www.w3.org/2000/svg" role="img" aria-labelledby="title desc">
  <title id="title">QuartierApp Symbol v2 Mono</title>
  <desc id="desc">Monochrome Vektorvariante des QuartierApp-Symbols.</desc>
  <path d="M129 168C158 122 210 91 269 91C316 91 358 111 388 143" stroke="currentColor" stroke-width="38" stroke-linecap="round"/>
  <path d="M427 169C450 200 463 238 463 279C463 310 455 339 442 365" stroke="currentColor" stroke-width="38" stroke-linecap="round"/>
  <path d="M86 198C66 219 54 247 54 278C54 306 64 332 80 352" stroke="currentColor" stroke-width="38" stroke-linecap="round"/>
  <circle cx="96" cy="178" r="27" fill="currentColor"/>
  <circle cx="373" cy="91" r="28" fill="currentColor"/>
  <circle cx="431" cy="169" r="28" fill="currentColor"/>
  <path d="M81 365C125 350 165 355 201 374C246 397 294 400 343 381C369 371 397 360 434 365" stroke="currentColor" stroke-width="26" stroke-linecap="round"/>
  <path d="M90 394C140 376 181 385 220 402C265 422 311 419 356 398C380 387 405 380 441 388" stroke="currentColor" stroke-width="11" stroke-linecap="round" opacity="0.55"/>
  <path d="M120 280L255 176L392 281" stroke="currentColor" stroke-width="28" stroke-linecap="round" stroke-linejoin="round"/>
  <path d="M162 298L255 224L348 298" stroke="currentColor" stroke-width="23" stroke-linecap="round" stroke-linejoin="round"/>
  <path d="M176 285V355" stroke="currentColor" stroke-width="26" stroke-linecap="round"/>
  <path d="M339 286V353" stroke="currentColor" stroke-width="26" stroke-linecap="round"/>
  <path d="M226 301H287V356H226V301Z" fill="currentColor"/>
  <path d="M304 301H341V338H304V301Z" fill="currentColor"/>
  <path d="M322.5 301V338" stroke="white" stroke-width="5" stroke-linecap="round"/>
  <path d="M304 319.5H341" stroke="white" stroke-width="5" stroke-linecap="round"/>
  <path d="M256 346C256 346 210 299 210 260.5C210 232.5 230.5 211 256 211C281.5 211 302 232.5 302 260.5C302 299 256 346 256 346Z" fill="currentColor" stroke="white" stroke-width="12" stroke-linejoin="round"/>
  <circle cx="256" cy="260" r="18" fill="white"/>
</svg>
